<svg version="1.2" xmlns="http://www.w3.org/2000/svg" viewBox="0 0 379 44" width="379" height="44"><style>.a{fill:#fff}.b{fill:#d92b4f}</style><path class="a" d="m7.7 26.7l-0.1 8.1h-7.5v-19.5l8-0.1 5 8 4.8-11.1 8.1-0.1v22.8h-7.6v-11.2l-5.4 11.1z"/><path class="a" d="m96.4 31.3c-2.9 2.3-6.3 3.5-9.9 3.5h-9.6v-22.8l11 0.2c3.5 0 6.7 1.5 9.1 3.8 3.5 4.6 3.3 10.9-0.6 15.3zm-5.8-4.7c1.6-1.8 1.4-4.9-0.1-6.4-1.6-1.5-4-1.6-5.9-1.5l0.1 9.5c2 0.1 4.4 0 5.9-1.6z"/><path class="a" d="m115.7 31.8h-8.1l-1.2 3h-8.2l9.7-22.9h7.6l9.6 22.8-8.2 0.2-1.2-3.1zm-2-5.5l-2.1-5.5-2.1 5.6z"/><path class="a" d="m44.4 31.8h-8.2l-1.2 3.1-8.1-0.2 9.7-22.9 7.7 0.1 9.6 22.8-8.1 0.2-1.4-3.1zm-1.9-5.4l-2.2-5.5-2 5.4 4.2 0.1z"/><path class="a" d="m62.6 28.7v6.1h-7.7v-22.8c8.8 0.1 19.8-1.5 20.6 7.2 0.4 4.1-1.8 7.8-6.1 8.9-2.1 0.5-4.4 0.5-6.8 0.6zm4.2-5.9c0.8-0.2 1.3-2.3 1-3-0.3-0.7-1.5-1.6-2.2-1.6l-3-0.1v5.2c1.3-0.1 2.8-0.3 4.2-0.5z"/><path class="a" d="m21.5 0c2.9-0.3 5.1 1.7 5.4 4.1 0.4 2.7-1.4 5.3-4.1 5.5-2.6 0.2-5-1.4-5.5-3.8-0.5-2.5 1.1-5.4 4.2-5.8z"/><path class="a" d="m3.1 6.2c1.8-0.2 3.5 1.2 3.8 2.6 0.4 2.2-0.9 3.7-2.8 4.2-1.9 0.4-3.7-0.9-4-2.9-0.4-1.7 0.8-3.7 3-3.9z"/><path class="b" d="m136.1 3.3h-1c-0.2 0-0.5 0.3-0.5 0.5v39.7c0 0.3 0.3 0.5 0.5 0.5h1c0.2 0 0.5-0.2 0.5-0.5v-39.7c0-0.2-0.3-0.5-0.5-0.5z"/><path class="a" d="m147.9 18.5v-8.1h2.4l1.5 5.5 1.5-5.5h2.5v8.1h-1.6v-6.4l-1.6 6.4h-1.6l-1.6-6.4v6.4z"/><path class="a" d="m158.3 14.5q-0.1-1.2 0.3-2.1 0.3-0.6 0.8-1.1 0.5-0.5 1-0.7 0.8-0.4 1.8-0.4 1.8 0 2.9 1.2 1.1 1.1 1.1 3.1 0 1.9-1.1 3-1.1 1.1-2.9 1.1-1.8 0-2.9-1.1-1-1.1-1-3zm1.7-0.1q0 1.4 0.6 2.1 0.7 0.7 1.6 0.7 1 0 1.7-0.7 0.6-0.7 0.6-2.1 0-1.4-0.6-2.1-0.6-0.7-1.7-0.7-1 0-1.6 0.7-0.6 0.7-0.6 2.1z"/><path class="a" d="m170.5 18.5v-6.7h-2.4v-1.4h6.5v1.4h-2.4v6.7h-1.7z"/><path class="a" d="m176.8 18.5v-8.1h1.7v3.2h3.2v-3.2h1.7v8.1h-1.7v-3.5h-3.2v3.5z"/><path class="a" d="m186.2 18.5v-8.1h6.1v1.4h-4.4v1.8h4.1v1.3h-4.1v2.2h4.6v1.4z"/><path class="a" d="m195 18.5v-8.1h3.5q1.3 0 1.9 0.2 0.6 0.2 1 0.8 0.3 0.5 0.3 1.3 0 0.9-0.5 1.5-0.6 0.6-1.6 0.7 0.5 0.3 0.9 0.7 0.3 0.4 0.9 1.3l1 1.6h-2l-1.2-1.8q-0.6-0.9-0.9-1.2-0.2-0.2-0.4-0.3-0.3-0.1-0.9-0.1h-0.3v3.4h-1.7zm1.7-4.7h1.2q1.2 0 1.5-0.1 0.3-0.1 0.5-0.3 0.1-0.3 0.1-0.6 0-0.4-0.2-0.7-0.2-0.2-0.6-0.3-0.2 0-1.2 0h-1.3z"/><path class="a" d="m204 15.9l1.7-0.2q0.1 0.8 0.5 1.2 0.5 0.4 1.2 0.4 0.8 0 1.2-0.4 0.5-0.3 0.5-0.7 0-0.3-0.2-0.5-0.2-0.2-0.6-0.4-0.3-0.1-1.3-0.3-1.4-0.4-1.9-0.8-0.8-0.7-0.8-1.7 0-0.6 0.4-1.1 0.3-0.6 1-0.9 0.7-0.2 1.6-0.2 1.6-0.1 2.3 0.6 0.8 0.7 0.9 1.8l-1.7 0.1q-0.1-0.6-0.4-0.9-0.4-0.3-1.1-0.3-0.7 0-1.1 0.3-0.3 0.2-0.3 0.5 0 0.3 0.3 0.5 0.3 0.3 1.5 0.5 1.2 0.3 1.8 0.6 0.5 0.3 0.9 0.9 0.3 0.5 0.3 1.3 0 0.7-0.4 1.3-0.4 0.6-1.1 0.9-0.7 0.3-1.8 0.3-1.5 0-2.4-0.7-0.8-0.8-1-2.1z"/><path class="a" d="m217.6 18.5v-8.1h5.6v1.4h-3.9v1.9h3.4v1.4h-3.4v3.4h-1.7z"/><path class="a" d="m225.4 14.5q0-1.2 0.4-2.1 0.3-0.6 0.7-1.1 0.5-0.5 1.1-0.7 0.8-0.4 1.8-0.4 1.8 0 2.9 1.2 1.1 1.1 1.1 3.1 0 1.9-1.1 3-1.1 1.1-2.9 1.1-1.8 0-2.9-1.1-1.1-1.1-1.1-3zm1.7-0.1q0 1.4 0.7 2.1 0.6 0.7 1.6 0.7 1 0 1.6-0.7 0.6-0.7 0.6-2.1 0-1.4-0.6-2.1-0.6-0.7-1.6-0.7-1 0-1.7 0.7-0.6 0.7-0.6 2.1z"/><path class="a" d="m235.8 18.5v-8.1h3.5q1.3 0 1.9 0.2 0.6 0.2 1 0.8 0.3 0.5 0.3 1.3 0 0.9-0.5 1.5-0.6 0.6-1.6 0.7 0.5 0.3 0.8 0.7 0.4 0.4 1 1.3l1 1.6h-2l-1.2-1.8q-0.6-0.9-0.9-1.2-0.2-0.2-0.5-0.3-0.2-0.1-0.8-0.1h-0.3v3.4h-1.7zm1.7-4.7h1.2q1.2 0 1.5-0.1 0.3-0.1 0.4-0.3 0.2-0.3 0.2-0.6 0-0.4-0.2-0.7-0.2-0.2-0.6-0.3-0.2 0-1.2 0h-1.3z"/><path class="a" d="m256.5 18.5h-1.8l-0.7-1.8h-3.3l-0.6 1.8h-1.8l3.2-8.1h1.8zm-3.1-3.2l-1.1-3-1.1 3z"/><path class="a" d="m259.1 18.5l-2-8.1h1.7l1.3 5.6 1.5-5.6h1.9l1.5 5.7 1.2-5.7h1.7l-2 8.1h-1.7l-1.7-6.1-1.6 6.1z"/><path class="a" d="m276.7 18.5h-1.8l-0.7-1.8h-3.3l-0.7 1.8h-1.8l3.2-8.1h1.8zm-3.1-3.2l-1.1-3-1.1 3z"/><path class="a" d="m278.7 18.5v-8.1h3.5q1.3 0 1.9 0.2 0.6 0.2 1 0.8 0.3 0.5 0.3 1.3 0 0.9-0.5 1.5-0.6 0.6-1.7 0.7 0.6 0.3 0.9 0.7 0.4 0.4 1 1.3l1 1.6h-2l-1.2-1.8q-0.6-0.9-0.9-1.2-0.2-0.2-0.5-0.3-0.2-0.1-0.8-0.1h-0.3v3.4h-1.7zm1.7-4.7h1.2q1.2 0 1.5-0.1 0.3-0.1 0.4-0.3 0.2-0.3 0.2-0.6 0-0.4-0.2-0.7-0.2-0.2-0.6-0.3-0.2 0-1.2 0h-1.3z"/><path class="a" d="m288.1 18.5v-8.1h6.1v1.4h-4.4v1.8h4.1v1.3h-4.1v2.2h4.6v1.4z"/><path class="a" d="m296.9 18.5v-8.1h1.7l3.3 5.4v-5.4h1.6v8.1h-1.7l-3.3-5.3v5.3z"/><path class="a" d="m306.4 18.5v-8.1h6v1.4h-4.4v1.8h4.1v1.3h-4.1v2.2h4.6v1.4z"/><path class="a" d="m314.7 15.9l1.6-0.2q0.2 0.8 0.6 1.2 0.5 0.4 1.2 0.4 0.8 0 1.2-0.4 0.4-0.3 0.4-0.7 0-0.3-0.1-0.5-0.2-0.2-0.6-0.4-0.3-0.1-1.3-0.3-1.4-0.4-1.9-0.8-0.8-0.7-0.8-1.7 0-0.6 0.4-1.1 0.3-0.6 1-0.9 0.7-0.2 1.6-0.2 1.6-0.1 2.3 0.6 0.8 0.7 0.9 1.8l-1.7 0.1q-0.1-0.6-0.4-0.9-0.4-0.3-1.1-0.3-0.7 0-1.1 0.3-0.3 0.2-0.3 0.5 0 0.3 0.3 0.5 0.3 0.3 1.5 0.5 1.2 0.3 1.8 0.6 0.5 0.3 0.9 0.9 0.3 0.5 0.3 1.3 0 0.7-0.4 1.3-0.4 0.6-1.1 0.9-0.7 0.3-1.8 0.3-1.5 0-2.4-0.7-0.8-0.8-1-2.1z"/><path class="a" d="m323.5 15.9l1.6-0.2q0.2 0.8 0.6 1.2 0.5 0.4 1.2 0.4 0.8 0 1.2-0.4 0.4-0.3 0.4-0.7 0-0.3-0.1-0.5-0.2-0.2-0.6-0.4-0.3-0.1-1.4-0.3-1.3-0.4-1.8-0.8-0.8-0.7-0.8-1.7 0-0.6 0.4-1.1 0.3-0.6 1-0.9 0.7-0.2 1.6-0.2 1.6-0.1 2.3 0.6 0.8 0.7 0.9 1.8l-1.7 0.1q-0.1-0.6-0.5-0.9-0.3-0.3-1-0.3-0.7 0-1.1 0.3-0.3 0.2-0.3 0.5 0 0.3 0.3 0.5 0.3 0.3 1.5 0.5 1.2 0.3 1.8 0.6 0.5 0.3 0.9 0.9 0.3 0.5 0.3 1.3 0 0.7-0.4 1.3-0.4 0.6-1.1 0.9-0.7 0.3-1.8 0.3-1.5 0-2.4-0.7-0.8-0.8-1-2.1z"/><path class="a" d="m155.3 34.6h-1.8l-0.7-1.9h-3.3l-0.7 1.9h-1.7l3.1-8.1h1.8zm-3-3.3l-1.2-3-1.1 3z"/><path class="a" d="m157.3 34.6v-8.1h1.6l3.4 5.4v-5.4h1.5v8.1h-1.6l-3.3-5.3v5.3z"/><path class="a" d="m166.7 26.5h3.1q1 0 1.5 0.1 0.7 0.2 1.3 0.8 0.5 0.5 0.7 1.3 0.3 0.8 0.3 1.9 0 1-0.2 1.7-0.3 0.9-0.9 1.5-0.4 0.4-1.2 0.6-0.5 0.2-1.4 0.2h-3.2v-8.1zm1.7 1.3v5.4h1.2q0.7 0 1-0.1 0.4-0.1 0.7-0.3 0.3-0.2 0.4-0.8 0.2-0.5 0.2-1.5 0-0.9-0.2-1.4-0.1-0.5-0.4-0.8-0.3-0.3-0.8-0.4-0.3-0.1-1.4-0.1h-0.7z"/><path class="a" d="m180.5 34.6v-8.1h2.7q1.5 0 1.9 0.1 0.7 0.2 1.2 0.8 0.5 0.6 0.5 1.6 0 0.7-0.3 1.2-0.3 0.5-0.7 0.8-0.4 0.3-0.8 0.4-0.6 0.1-1.8 0.1h-1v3.1zm1.6-6.8v2.3h0.9q1 0 1.3-0.1 0.4-0.1 0.6-0.4 0.1-0.3 0.1-0.6 0-0.5-0.2-0.8-0.3-0.2-0.7-0.3-0.3-0.1-1.2-0.1h-0.8z"/><path class="a" d="m189.3 34.6v-8.1h3.5q1.3 0 1.9 0.2 0.6 0.2 1 0.8 0.3 0.5 0.3 1.2 0 1-0.5 1.5-0.6 0.6-1.7 0.8 0.6 0.3 0.9 0.7 0.4 0.3 1 1.3l1 1.6h-2l-1.2-1.8q-0.6-0.9-0.9-1.2-0.2-0.2-0.5-0.3-0.2-0.1-0.8-0.1h-0.3v3.4h-1.7zm1.7-4.7h1.2q1.2 0 1.5-0.1 0.3-0.1 0.4-0.4 0.2-0.2 0.2-0.6 0-0.4-0.2-0.6-0.2-0.3-0.6-0.3-0.2-0.1-1.2-0.1h-1.3z"/><path class="a" d="m198.7 34.6v-8.1h6.1v1.3h-4.4v1.8h4.1v1.4h-4.1v2.2h4.6v1.4z"/><path class="a" d="m209.6 34.6l-2.9-8.1h1.8l2.1 6 2-6h1.7l-2.9 8.1h-1.8z"/><path class="a" d="m216.3 34.6v-8.1h6.1v1.3h-4.4v1.8h4.1v1.4h-4.1v2.2h4.6v1.4z"/><path class="a" d="m225.1 34.6v-8.1h1.7l3.3 5.4v-5.4h1.5v8.1h-1.6l-3.3-5.3v5.3z"/><path class="a" d="m236.4 34.6v-6.8h-2.4v-1.3h6.5v1.3h-2.5v6.8h-1.6z"/><path class="a" d="m242.7 34.6v-8.1h1.6v8.1z"/><path class="a" d="m246.7 30.6q0-1.3 0.4-2.1 0.3-0.6 0.7-1.1 0.5-0.5 1.1-0.8 0.8-0.3 1.8-0.3 1.8 0 2.9 1.1 1.1 1.1 1.1 3.1 0 2-1.1 3.1-1.1 1.1-2.9 1.1-1.8 0-2.9-1.1-1.1-1.1-1.1-3zm1.7-0.1q0 1.4 0.7 2.1 0.6 0.7 1.6 0.7 1 0 1.6-0.7 0.6-0.7 0.6-2.1 0-1.4-0.6-2.1-0.6-0.7-1.6-0.7-1 0-1.7 0.7-0.6 0.7-0.6 2.1z"/><path class="a" d="m257.1 34.6v-8.1h1.6l3.4 5.4v-5.4h1.5v8.1h-1.6l-3.3-5.3v5.3z"/><path class="a" d="m270.5 30.6q0-1.3 0.4-2.1 0.3-0.6 0.8-1.1 0.5-0.5 1-0.8 0.8-0.3 1.8-0.3 1.8 0 2.9 1.1 1.1 1.1 1.1 3.1 0 2-1.1 3.1-1.1 1.1-2.9 1.1-1.8 0-2.9-1.1-1.1-1.1-1.1-3zm1.7-0.1q0 1.4 0.7 2.1 0.6 0.7 1.6 0.7 1 0 1.6-0.7 0.7-0.7 0.7-2.1 0-1.4-0.6-2.1-0.7-0.7-1.7-0.7-1 0-1.6 0.7-0.7 0.7-0.7 2.1z"/><path class="a" d="m280.9 34.6v-8.1h5.7v1.3h-4v2h3.4v1.3h-3.4v3.5h-1.7z"/><path class="a" d="m293.4 26.5h3q1.1 0 1.6 0.1 0.7 0.2 1.2 0.8 0.6 0.5 0.8 1.3 0.3 0.8 0.3 1.9 0 1-0.3 1.7-0.3 0.9-0.8 1.5-0.5 0.4-1.2 0.6-0.6 0.2-1.5 0.2h-3.1v-8.1zm1.7 1.3v5.4h1.2q0.7 0 1-0.1 0.4-0.1 0.7-0.3 0.2-0.2 0.4-0.8 0.2-0.5 0.2-1.5 0-0.9-0.2-1.4-0.2-0.5-0.5-0.8-0.3-0.3-0.7-0.4-0.4-0.1-1.4-0.1h-0.7z"/><path class="a" d="m302.9 34.6v-8.1h3.4q1.4 0 2 0.2 0.5 0.2 0.9 0.8 0.4 0.5 0.4 1.2 0 1-0.6 1.5-0.5 0.6-1.6 0.8 0.5 0.3 0.9 0.7 0.3 0.3 0.9 1.3l1 1.6h-2l-1.1-1.8q-0.7-0.9-0.9-1.2-0.3-0.2-0.5-0.3-0.3-0.1-0.9-0.1h-0.3v3.4h-1.6zm1.6-4.7h1.2q1.2 0 1.5-0.1 0.3-0.1 0.5-0.4 0.2-0.2 0.2-0.6 0-0.4-0.3-0.6-0.2-0.3-0.6-0.3-0.2-0.1-1.2-0.1h-1.3z"/><path class="a" d="m312.3 26.5h1.6v4.4q0 1 0.1 1.3 0.1 0.5 0.5 0.8 0.4 0.3 1.1 0.3 0.7 0 1.1-0.3 0.3-0.3 0.4-0.7 0.1-0.4 0.1-1.3v-4.5h1.6v4.2q0 1.5-0.1 2.1-0.2 0.6-0.5 1-0.4 0.4-1 0.7-0.6 0.2-1.6 0.2-1.1 0-1.7-0.3-0.6-0.2-1-0.7-0.4-0.4-0.5-0.8-0.1-0.7-0.1-2.1v-4.3z"/><path class="a" d="m325.5 31.6v-1.4h3.6v3.3q-0.5 0.5-1.5 0.8-1 0.4-2 0.4-1.3 0-2.3-0.5-0.9-0.5-1.4-1.5-0.5-1-0.5-2.2 0-1.3 0.6-2.3 0.5-0.9 1.5-1.5 0.8-0.4 2-0.4 1.5 0 2.4 0.7 0.8 0.6 1.1 1.7l-1.7 0.3q-0.1-0.6-0.6-0.9-0.5-0.4-1.2-0.4-1.1 0-1.7 0.7-0.7 0.7-0.7 2 0 1.5 0.7 2.2 0.6 0.7 1.7 0.7 0.5 0 1-0.2 0.5-0.2 0.9-0.5v-1h-1.9z"/><path class="a" d="m343.1 34.6h-1.8l-0.7-1.9h-3.3l-0.7 1.9h-1.7l3.1-8.1h1.8zm-3-3.3l-1.2-3-1.1 3z"/><path class="a" d="m345.1 26.5h3.3q1 0 1.5 0 0.4 0.1 0.8 0.4 0.4 0.2 0.6 0.7 0.3 0.4 0.3 0.9 0 0.6-0.3 1.1-0.3 0.4-0.9 0.7 0.8 0.2 1.2 0.7 0.4 0.5 0.4 1.2 0 0.6-0.3 1.1-0.2 0.5-0.7 0.8-0.4 0.4-1.1 0.4-0.4 0.1-2 0.1h-2.8zm1.7 1.3v1.9h1.1q0.9 0 1.2 0 0.4-0.1 0.6-0.3 0.3-0.3 0.3-0.6 0-0.4-0.2-0.7-0.2-0.2-0.7-0.2-0.2-0.1-1.4-0.1zm0 3.3v2.1h1.6q0.9 0 1.1 0 0.4-0.1 0.6-0.3 0.2-0.3 0.2-0.7 0-0.4-0.2-0.7-0.1-0.2-0.5-0.3-0.3-0.2-1.4-0.1h-1.4z"/><path class="a" d="m354.5 26.5h1.7v4.4q0 1 0 1.3 0.2 0.5 0.6 0.8 0.4 0.3 1 0.3 0.7 0 1.1-0.3 0.4-0.3 0.4-0.7 0.1-0.4 0.1-1.3v-4.5h1.7v4.2q0 1.5-0.2 2.1-0.1 0.6-0.5 1-0.3 0.4-0.9 0.7-0.6 0.2-1.6 0.2-1.2 0-1.8-0.3-0.6-0.2-0.9-0.7-0.4-0.4-0.5-0.8-0.2-0.7-0.2-2.1v-4.3z"/><path class="a" d="m363.6 31.9l1.6-0.1q0.1 0.8 0.6 1.2 0.4 0.3 1.2 0.3 0.8 0 1.2-0.3 0.4-0.3 0.4-0.8 0-0.3-0.2-0.5-0.2-0.2-0.6-0.3-0.3-0.1-1.3-0.4-1.4-0.3-1.9-0.8-0.7-0.6-0.7-1.6 0-0.6 0.3-1.2 0.4-0.5 1-0.8 0.7-0.3 1.6-0.3 1.6 0 2.4 0.7 0.7 0.7 0.8 1.8l-1.7 0.1q-0.1-0.7-0.4-0.9-0.4-0.3-1.1-0.3-0.7 0-1.1 0.3-0.3 0.2-0.3 0.5 0 0.3 0.3 0.5 0.3 0.2 1.5 0.5 1.2 0.3 1.8 0.6 0.6 0.3 0.9 0.8 0.3 0.6 0.3 1.3 0 0.7-0.4 1.3-0.4 0.6-1.1 0.9-0.7 0.3-1.8 0.3-1.5 0-2.4-0.7-0.8-0.7-1-2.1z"/><path class="a" d="m372.8 34.6v-8.1h6v1.3h-4.4v1.8h4.1v1.4h-4.1v2.2h4.6v1.4z"/><path class="b" d="m12.4 12.3c-0.9-1.8-3.3-1.8-3.3 0.3 0 1.5 1.5 2.3 3.3 3.8 1.8-1.5 3.2-2.3 3.2-3.8 0-2.1-2.3-2.1-3.2-0.3z"/></svg>