<svg width="379" height="44" viewBox="0 0 379 44" fill="none" xmlns="http://www.w3.org/2000/svg">
<path d="M7.69904 26.6928L7.58451 34.7602L0.116367 34.8122L0.102051 15.2509L8.13806 15.2083L13.1009 23.2143L17.9445 12.1127L26.0425 12.0418L26.0473 34.7791L18.4026 34.8027L18.3596 23.6255L13.0198 34.661L7.69904 26.6928Z" fill="white"/>
<path d="M96.3528 31.3102C93.4753 33.6354 90.0776 34.7838 86.4748 34.7886L76.8736 34.798L76.864 12.0371L87.9016 12.1505C91.409 12.1884 94.6301 13.7007 97.0161 16.0401C100.514 20.615 100.309 26.8629 96.3528 31.3149V31.3102ZM90.5834 26.5604C92.1773 24.807 92.0389 21.6973 90.4737 20.1755C88.9085 18.6537 86.4891 18.5497 84.6185 18.7246L84.671 28.1484C86.6991 28.2855 89.1089 28.1909 90.5834 26.5652V26.5604Z" fill="white"/>
<path d="M115.746 31.8442L107.557 31.7591L106.403 34.8122L98.1948 34.7508L107.872 11.8528L115.498 11.9142L125.109 34.7035L116.906 34.8595L115.737 31.8489L115.746 31.8442ZM113.694 26.3052L111.614 20.8182L109.476 26.3997L113.694 26.3052Z" fill="white"/>
<path d="M44.3716 31.7875L36.2402 31.8111L35.0233 34.8547L26.9443 34.7177L36.6315 11.8292L44.2571 11.9331L53.8774 34.7177L45.7507 34.8595L44.3668 31.778L44.3716 31.7875ZM42.501 26.3667L40.3393 20.8702L38.2778 26.3289L42.5058 26.3667H42.501Z" fill="white"/>
<path d="M62.6053 28.6966V34.8169L54.8508 34.7697V12.0466C63.7363 12.0797 74.7023 10.4964 75.5183 19.1972C75.9048 23.3183 73.6906 27.0141 69.3672 28.0775C67.2914 28.5879 65.0295 28.6352 62.6053 28.6966ZM66.8237 22.7512C67.6159 22.5811 68.1408 20.4543 67.8354 19.7832C67.53 19.1121 66.3274 18.1858 65.5878 18.1669L62.5671 18.0818L62.6148 23.2994C63.9128 23.1907 65.4494 23.0442 66.819 22.7512H66.8237Z" fill="white"/>
<path d="M21.4661 0.0375519C24.4152 -0.302727 26.6342 1.72004 26.9396 4.07837C27.2975 6.81478 25.4555 9.36688 22.7546 9.59373C20.2397 9.8064 17.8013 8.24206 17.2954 5.77504C16.7896 3.30801 18.3882 0.396736 21.4661 0.0375519Z" fill="white"/>
<path d="M3.08449 6.20984C4.94556 6.03497 6.63007 7.35828 6.91639 8.80447C7.33632 10.9643 5.99063 12.5334 4.12001 12.954C2.2494 13.3746 0.426501 12.0844 0.0542863 10.1041C-0.27498 8.35549 0.913242 6.40833 3.08449 6.20511V6.20984Z" fill="white"/>
<path d="M136.08 3.34582H135.125C134.862 3.34582 134.648 3.55742 134.648 3.81843V43.5271C134.648 43.7881 134.862 43.9997 135.125 43.9997H136.08C136.343 43.9997 136.557 43.7881 136.557 43.5271V3.81843C136.557 3.55742 136.343 3.34582 136.08 3.34582Z" fill="#D92B4F"/>
<path d="M147.866 18.5119V10.3924H150.343L151.832 15.9314L153.302 10.3924H155.783V18.5119H154.246V12.1222L152.619 18.5119H151.025L149.403 12.1222V18.5119H147.866Z" fill="white"/>
<path d="M158.25 14.4994C158.25 13.6723 158.374 12.9776 158.627 12.4152C158.813 11.9993 159.066 11.6307 159.391 11.2998C159.715 10.969 160.068 10.728 160.45 10.5673C160.96 10.3546 161.547 10.2459 162.216 10.2459C163.423 10.2459 164.392 10.6193 165.117 11.3613C165.842 12.1033 166.205 13.1336 166.205 14.4569C166.205 15.7802 165.847 16.7916 165.126 17.5336C164.406 18.2756 163.447 18.6442 162.239 18.6442C161.032 18.6442 160.049 18.2756 159.333 17.5383C158.617 16.801 158.255 15.7849 158.255 14.4947L158.25 14.4994ZM159.958 14.4427C159.958 15.3643 160.173 16.059 160.603 16.5316C161.032 17.0043 161.576 17.2453 162.235 17.2453C162.893 17.2453 163.437 17.009 163.857 16.5411C164.277 16.0732 164.492 15.3643 164.492 14.4238C164.492 13.4833 164.287 12.798 163.876 12.3396C163.466 11.8812 162.917 11.6543 162.235 11.6543C161.552 11.6543 161.003 11.8859 160.584 12.349C160.164 12.8122 159.958 13.5117 159.958 14.4474V14.4427Z" fill="white"/>
<path d="M170.5 18.5119V11.7677H168.066V10.3924H174.58V11.7677H172.151V18.5119H170.495H170.5Z" fill="white"/>
<path d="M176.808 18.5119V10.3924H178.464V13.5873H181.709V10.3924H183.365V18.5119H181.709V14.9626H178.464V18.5119H176.808Z" fill="white"/>
<path d="M186.233 18.5119V10.3924H192.312V11.7677H187.889V13.5684H192.002V14.9342H187.889V17.146H192.47V18.5119H186.233Z" fill="white"/>
<path d="M195.032 18.5119V10.3924H198.516C199.394 10.3924 200.029 10.4633 200.425 10.6098C200.821 10.7563 201.14 11.0163 201.379 11.3896C201.618 11.763 201.737 12.1884 201.737 12.6704C201.737 13.2801 201.556 13.781 201.193 14.178C200.83 14.575 200.291 14.8255 199.571 14.9295C199.928 15.1374 200.224 15.3643 200.458 15.61C200.692 15.8558 201.007 16.2953 201.398 16.9286L202.4 18.5119H200.42L199.222 16.7443C198.797 16.111 198.506 15.714 198.349 15.5486C198.191 15.3832 198.024 15.2698 197.853 15.2131C197.681 15.1563 197.399 15.1233 197.017 15.1233H196.683V18.5119H195.028H195.032ZM196.688 13.8236H197.915C198.707 13.8236 199.203 13.7905 199.403 13.7243C199.604 13.6582 199.757 13.5447 199.866 13.3793C199.976 13.2139 200.033 13.0154 200.033 12.7697C200.033 12.4955 199.962 12.2781 199.814 12.108C199.666 11.9379 199.461 11.8339 199.189 11.7914C199.055 11.7725 198.654 11.763 197.981 11.763H196.688V13.8236Z" fill="white"/>
<path d="M204.037 15.87L205.65 15.714C205.745 16.2481 205.946 16.6403 206.242 16.8956C206.538 17.1508 206.938 17.2736 207.44 17.2736C207.974 17.2736 208.375 17.1602 208.647 16.9381C208.919 16.716 209.052 16.4513 209.052 16.1536C209.052 15.9598 208.995 15.7991 208.881 15.662C208.766 15.525 208.57 15.4116 208.284 15.3123C208.089 15.2461 207.649 15.128 206.958 14.9578C206.07 14.7404 205.45 14.4711 205.092 14.1544C204.591 13.7054 204.338 13.1619 204.338 12.5192C204.338 12.1033 204.457 11.7205 204.691 11.3566C204.925 10.9927 205.268 10.7233 205.712 10.5342C206.156 10.3452 206.695 10.2507 207.325 10.2507C208.356 10.2507 209.129 10.4728 209.649 10.9218C210.169 11.3707 210.441 11.9662 210.47 12.713L208.814 12.7838C208.742 12.3679 208.59 12.0655 208.356 11.8859C208.122 11.7063 207.774 11.6118 207.306 11.6118C206.838 11.6118 206.447 11.711 206.175 11.9048C205.998 12.0324 205.912 12.1978 205.912 12.4105C205.912 12.6043 205.994 12.7649 206.161 12.902C206.371 13.0769 206.876 13.2565 207.683 13.4455C208.489 13.6345 209.086 13.8283 209.468 14.0315C209.849 14.2348 210.155 14.5089 210.374 14.8586C210.594 15.2083 210.704 15.6384 210.704 16.1536C210.704 16.6167 210.575 17.0562 210.312 17.4627C210.05 17.8691 209.682 18.1716 209.205 18.3701C208.728 18.5686 208.131 18.6678 207.42 18.6678C206.385 18.6678 205.588 18.4315 205.034 17.9542C204.481 17.4769 204.147 16.7868 204.037 15.8794V15.87Z" fill="white"/>
<path d="M217.599 18.5119V10.3924H223.221V11.7677H219.255V13.6913H222.677V15.0665H219.255V18.5166H217.599V18.5119Z" fill="white"/>
<path d="M225.406 14.4994C225.406 13.6723 225.53 12.9776 225.783 12.4152C225.969 11.9993 226.222 11.6307 226.547 11.2998C226.871 10.969 227.224 10.728 227.606 10.5673C228.116 10.3546 228.703 10.2459 229.372 10.2459C230.579 10.2459 231.548 10.6193 232.273 11.3613C232.998 12.1033 233.361 13.1336 233.361 14.4569C233.361 15.7802 233.003 16.7916 232.282 17.5336C231.562 18.2756 230.603 18.6442 229.395 18.6442C228.188 18.6442 227.205 18.2756 226.489 17.5383C225.773 16.801 225.411 15.7849 225.411 14.4947L225.406 14.4994ZM227.11 14.4427C227.11 15.3643 227.324 16.059 227.754 16.5316C228.183 17.0043 228.727 17.2453 229.386 17.2453C230.044 17.2453 230.588 17.009 231.008 16.5411C231.428 16.0732 231.643 15.3643 231.643 14.4238C231.643 13.4833 231.438 12.798 231.027 12.3396C230.617 11.8812 230.068 11.6543 229.386 11.6543C228.703 11.6543 228.155 11.8859 227.735 12.349C227.315 12.8122 227.11 13.5117 227.11 14.4474V14.4427Z" fill="white"/>
<path d="M235.814 18.5119V10.3924H239.297C240.175 10.3924 240.81 10.4633 241.206 10.6098C241.602 10.7563 241.922 11.0163 242.161 11.3896C242.399 11.763 242.518 12.1884 242.518 12.6704C242.518 13.2801 242.337 13.781 241.974 14.178C241.612 14.575 241.073 14.8255 240.352 14.9295C240.71 15.1374 241.006 15.3643 241.24 15.61C241.473 15.8558 241.788 16.2953 242.18 16.9286L243.182 18.5119H241.201L240.004 16.7443C239.579 16.111 239.288 15.714 239.13 15.5486C238.973 15.3832 238.806 15.2698 238.634 15.2131C238.462 15.1563 238.181 15.1233 237.799 15.1233H237.465V18.5119H235.809H235.814ZM237.47 13.8236H238.696C239.488 13.8236 239.985 13.7905 240.185 13.7243C240.385 13.6582 240.538 13.5447 240.648 13.3793C240.758 13.2139 240.815 13.0154 240.815 12.7697C240.815 12.4955 240.743 12.2781 240.595 12.108C240.447 11.9379 240.242 11.8339 239.97 11.7914C239.837 11.7725 239.436 11.763 238.763 11.763H237.47V13.8236Z" fill="white"/>
<path d="M256.538 18.5119H254.739L254.024 16.6687H250.745L250.068 18.5119H248.312L251.504 10.3924H253.255L256.538 18.5119ZM253.494 15.2981L252.363 12.2829L251.256 15.2981H253.494Z" fill="white"/>
<path d="M259.106 18.5119L257.149 10.3924H258.843L260.079 15.9692L261.578 10.3924H263.544L264.98 16.0638L266.24 10.3924H267.905L265.915 18.5119H264.159L262.527 12.4436L260.9 18.5119H259.106Z" fill="white"/>
<path d="M276.671 18.5119H274.872L274.157 16.6687H270.878L270.201 18.5119H268.445L271.637 10.3924H273.388L276.671 18.5119ZM273.622 15.2981L272.491 12.2829L271.384 15.2981H273.622Z" fill="white"/>
<path d="M278.709 18.5119V10.3924H282.193C283.071 10.3924 283.705 10.4633 284.101 10.6098C284.498 10.7563 284.817 11.0163 285.056 11.3896C285.294 11.763 285.414 12.1884 285.414 12.6704C285.414 13.2801 285.232 13.781 284.87 14.178C284.507 14.575 283.968 14.8255 283.247 14.9295C283.605 15.1374 283.901 15.3643 284.135 15.61C284.369 15.8558 284.684 16.2953 285.075 16.9286L286.077 18.5119H284.097L282.899 16.7443C282.474 16.111 282.183 15.714 282.026 15.5486C281.868 15.3832 281.701 15.2698 281.529 15.2131C281.358 15.1563 281.076 15.1233 280.694 15.1233H280.36V18.5119H278.704H278.709ZM280.365 13.8236H281.591C282.384 13.8236 282.88 13.7905 283.08 13.7243C283.281 13.6582 283.433 13.5447 283.543 13.3793C283.653 13.2139 283.71 13.0154 283.71 12.7697C283.71 12.4955 283.639 12.2781 283.491 12.108C283.343 11.9379 283.138 11.8339 282.866 11.7914C282.732 11.7725 282.331 11.763 281.658 11.763H280.365V13.8236Z" fill="white"/>
<path d="M288.134 18.5119V10.3924H294.213V11.7677H289.79V13.5684H293.903V14.9342H289.79V17.146H294.371V18.5119H288.134Z" fill="white"/>
<path d="M296.948 18.5119V10.3924H298.56L301.915 15.8133V10.3924H303.452V18.5119H301.791L298.484 13.2186V18.5119H296.948Z" fill="white"/>
<path d="M306.358 18.5119V10.3924H312.437V11.7677H308.014V13.5684H312.127V14.9342H308.014V17.146H312.595V18.5119H306.358Z" fill="white"/>
<path d="M314.733 15.87L316.346 15.714C316.441 16.2481 316.641 16.6403 316.937 16.8956C317.233 17.1508 317.634 17.2736 318.135 17.2736C318.67 17.2736 319.07 17.1602 319.342 16.9381C319.614 16.716 319.748 16.4513 319.748 16.1536C319.748 15.9598 319.691 15.7991 319.576 15.662C319.462 15.525 319.266 15.4116 318.98 15.3123C318.784 15.2461 318.345 15.128 317.653 14.9578C316.766 14.7404 316.145 14.4711 315.787 14.1544C315.286 13.7054 315.033 13.1619 315.033 12.5192C315.033 12.1033 315.153 11.7205 315.386 11.3566C315.62 10.9927 315.964 10.7233 316.408 10.5342C316.851 10.3452 317.391 10.2507 318.021 10.2507C319.051 10.2507 319.824 10.4728 320.345 10.9218C320.865 11.3707 321.137 11.9662 321.165 12.713L319.509 12.7838C319.438 12.3679 319.285 12.0655 319.051 11.8859C318.818 11.7063 318.469 11.6118 318.001 11.6118C317.534 11.6118 317.143 11.711 316.871 11.9048C316.694 12.0324 316.608 12.1978 316.608 12.4105C316.608 12.6043 316.689 12.7649 316.856 12.902C317.066 13.0769 317.572 13.2565 318.378 13.4455C319.185 13.6345 319.781 13.8283 320.163 14.0315C320.545 14.2348 320.85 14.5089 321.07 14.8586C321.289 15.2083 321.399 15.6384 321.399 16.1536C321.399 16.6167 321.27 17.0562 321.008 17.4627C320.745 17.8691 320.378 18.1716 319.901 18.3701C319.424 18.5686 318.827 18.6678 318.116 18.6678C317.08 18.6678 316.284 18.4315 315.73 17.9542C315.176 17.4769 314.842 16.7868 314.733 15.8794V15.87Z" fill="white"/>
<path d="M323.528 15.87L325.141 15.714C325.236 16.2481 325.436 16.6403 325.732 16.8956C326.028 17.1508 326.429 17.2736 326.93 17.2736C327.464 17.2736 327.865 17.1602 328.137 16.9381C328.409 16.716 328.543 16.4513 328.543 16.1536C328.543 15.9598 328.486 15.7991 328.371 15.662C328.257 15.525 328.061 15.4116 327.775 15.3123C327.579 15.2461 327.14 15.128 326.448 14.9578C325.56 14.7404 324.94 14.4711 324.582 14.1544C324.081 13.7054 323.828 13.1619 323.828 12.5192C323.828 12.1033 323.948 11.7205 324.181 11.3566C324.415 10.9927 324.759 10.7233 325.203 10.5342C325.646 10.3452 326.186 10.2507 326.815 10.2507C327.846 10.2507 328.619 10.4728 329.139 10.9218C329.66 11.3707 329.932 11.9662 329.96 12.713L328.304 12.7838C328.233 12.3679 328.08 12.0655 327.846 11.8859C327.612 11.7063 327.264 11.6118 326.796 11.6118C326.329 11.6118 325.937 11.711 325.665 11.9048C325.489 12.0324 325.403 12.1978 325.403 12.4105C325.403 12.6043 325.484 12.7649 325.651 12.902C325.861 13.0769 326.367 13.2565 327.173 13.4455C327.98 13.6345 328.576 13.8283 328.958 14.0315C329.34 14.2348 329.645 14.5089 329.865 14.8586C330.084 15.2083 330.194 15.6384 330.194 16.1536C330.194 16.6167 330.065 17.0562 329.803 17.4627C329.54 17.8691 329.173 18.1716 328.696 18.3701C328.218 18.5686 327.622 18.6678 326.911 18.6678C325.875 18.6678 325.078 18.4315 324.525 17.9542C323.971 17.4769 323.637 16.7868 323.528 15.8794V15.87Z" fill="white"/>
<path d="M155.282 34.5806H153.483L152.767 32.7374H149.489L148.811 34.5806H147.055L150.248 26.4612H151.999L155.282 34.5806ZM152.238 31.3669L151.107 28.3516L149.999 31.3669H152.238Z" fill="white"/>
<path d="M157.334 34.5806V26.4612H158.947L162.302 31.882V26.4612H163.838V34.5806H162.178L158.871 29.2874V34.5806H157.334Z" fill="white"/>
<path d="M166.74 26.4612H169.765C170.447 26.4612 170.968 26.5132 171.326 26.6171C171.807 26.7589 172.218 27.0047 172.561 27.3639C172.905 27.7231 173.167 28.1626 173.344 28.6777C173.521 29.1929 173.611 29.8356 173.611 30.5965C173.611 31.2629 173.525 31.8395 173.358 32.3263C173.153 32.917 172.862 33.3944 172.48 33.763C172.194 34.0418 171.807 34.2545 171.316 34.4105C170.949 34.5239 170.462 34.5806 169.851 34.5806H166.735V26.4612H166.74ZM168.396 27.8317V33.2101H169.631C170.094 33.2101 170.428 33.1864 170.634 33.1344C170.901 33.0683 171.125 32.9548 171.302 32.7989C171.478 32.6429 171.621 32.3783 171.736 32.0143C171.85 31.6504 171.903 31.1542 171.903 30.5256C171.903 29.8971 171.846 29.415 171.736 29.0794C171.626 28.7439 171.469 28.4792 171.268 28.2949C171.068 28.1106 170.81 27.9783 170.5 27.9121C170.271 27.8601 169.818 27.8365 169.14 27.8365H168.396V27.8317Z" fill="white"/>
<path d="M180.511 34.5806V26.4612H183.169C184.176 26.4612 184.83 26.5037 185.136 26.5841C185.603 26.7069 185.999 26.9716 186.314 27.378C186.629 27.7845 186.791 28.3138 186.791 28.9613C186.791 29.4575 186.701 29.8782 186.519 30.2184C186.338 30.5587 186.104 30.8234 185.823 31.0171C185.541 31.2109 185.255 31.3385 184.964 31.4C184.568 31.4756 183.995 31.5181 183.246 31.5181H182.167V34.5806H180.511ZM182.167 27.8317V30.1381H183.074C183.728 30.1381 184.162 30.0956 184.382 30.0105C184.601 29.9254 184.773 29.7931 184.897 29.6135C185.021 29.4339 185.083 29.2212 185.083 28.9802C185.083 28.6872 184.997 28.4414 184.821 28.2476C184.644 28.0539 184.425 27.9357 184.157 27.8885C183.962 27.8507 183.561 27.8317 182.964 27.8317H182.163H182.167Z" fill="white"/>
<path d="M189.311 34.5806V26.4612H192.794C193.673 26.4612 194.307 26.5321 194.703 26.6786C195.099 26.8251 195.419 27.085 195.658 27.4584C195.896 27.8317 196.016 28.2571 196.016 28.7392C196.016 29.3488 195.834 29.8498 195.472 30.2468C195.109 30.6438 194.57 30.8943 193.849 30.9982C194.207 31.2062 194.503 31.433 194.737 31.6788C194.97 31.9246 195.285 32.3641 195.677 32.9974L196.679 34.5806H194.698L193.501 32.8131C193.076 32.1798 192.785 31.7828 192.627 31.6174C192.47 31.4519 192.303 31.3385 192.131 31.2818C191.959 31.2251 191.678 31.192 191.296 31.192H190.962V34.5806H189.306H189.311ZM190.967 29.8923H192.193C192.985 29.8923 193.482 29.8592 193.682 29.7931C193.882 29.7269 194.035 29.6135 194.145 29.4481C194.255 29.2827 194.312 29.0842 194.312 28.8384C194.312 28.5643 194.24 28.3469 194.092 28.1768C193.945 28.0066 193.739 27.9026 193.467 27.8601C193.334 27.8412 192.933 27.8317 192.26 27.8317H190.967V29.8923Z" fill="white"/>
<path d="M198.736 34.5806V26.4612H204.815V27.8365H200.391V29.6371H204.505V31.003H200.391V33.2148H204.973V34.5806H198.736Z" fill="white"/>
<path d="M209.621 34.5806L206.691 26.4612H208.485L210.561 32.4681L212.57 26.4612H214.326L211.391 34.5806H209.625H209.621Z" fill="white"/>
<path d="M216.325 34.5806V26.4612H222.405V27.8365H217.981V29.6371H222.095V31.003H217.981V33.2148H222.562V34.5806H216.325Z" fill="white"/>
<path d="M225.139 34.5806V26.4612H226.752L230.107 31.882V26.4612H231.643V34.5806H229.983L226.676 29.2874V34.5806H225.139Z" fill="white"/>
<path d="M236.396 34.5806V27.8365H233.962V26.4612H240.476V27.8365H238.047V34.5806H236.391H236.396Z" fill="white"/>
<path d="M242.652 34.5806V26.4612H244.308V34.5806H242.652Z" fill="white"/>
<path d="M246.704 30.5682C246.704 29.7411 246.828 29.0464 247.081 28.484C247.267 28.0681 247.52 27.6994 247.844 27.3686C248.169 27.0378 248.522 26.7967 248.904 26.636C249.414 26.4234 250.001 26.3147 250.669 26.3147C251.876 26.3147 252.845 26.688 253.57 27.43C254.296 28.172 254.659 29.2023 254.659 30.5256C254.659 31.8489 254.301 32.8603 253.58 33.6023C252.859 34.3443 251.9 34.713 250.693 34.713C249.486 34.713 248.503 34.3443 247.787 33.607C247.071 32.8698 246.708 31.8537 246.708 30.5634L246.704 30.5682ZM248.412 30.5115C248.412 31.433 248.627 32.1278 249.056 32.6004C249.486 33.073 250.03 33.314 250.688 33.314C251.347 33.314 251.891 33.0777 252.311 32.6098C252.731 32.142 252.945 31.433 252.945 30.4925C252.945 29.5521 252.74 28.8668 252.33 28.4083C251.919 27.9499 251.371 27.7231 250.688 27.7231C250.006 27.7231 249.457 27.9546 249.037 28.4178C248.617 28.8809 248.412 29.5804 248.412 30.5162V30.5115Z" fill="white"/>
<path d="M257.121 34.5806V26.4612H258.734L262.088 31.882V26.4612H263.625V34.5806H261.964L258.657 29.2874V34.5806H257.121Z" fill="white"/>
<path d="M270.535 30.5682C270.535 29.7411 270.659 29.0464 270.912 28.484C271.098 28.0681 271.351 27.6994 271.675 27.3686C272 27.0378 272.353 26.7967 272.735 26.636C273.245 26.4234 273.832 26.3147 274.5 26.3147C275.708 26.3147 276.676 26.688 277.402 27.43C278.127 28.172 278.49 29.2023 278.49 30.5256C278.49 31.8489 278.132 32.8603 277.411 33.6023C276.691 34.3443 275.732 34.713 274.524 34.713C273.317 34.713 272.334 34.3443 271.618 33.607C270.902 32.8698 270.54 31.8537 270.54 30.5634L270.535 30.5682ZM272.243 30.5115C272.243 31.433 272.458 32.1278 272.887 32.6004C273.317 33.073 273.861 33.314 274.52 33.314C275.178 33.314 275.722 33.0777 276.142 32.6098C276.562 32.142 276.777 31.433 276.777 30.4925C276.777 29.5521 276.571 28.8668 276.161 28.4083C275.751 27.9499 275.202 27.7231 274.52 27.7231C273.837 27.7231 273.288 27.9546 272.868 28.4178C272.448 28.8809 272.243 29.5804 272.243 30.5162V30.5115Z" fill="white"/>
<path d="M280.947 34.5806V26.4612H286.569V27.8365H282.603V29.76H286.025V31.1353H282.603V34.5853H280.947V34.5806Z" fill="white"/>
<path d="M293.421 26.4612H296.447C297.129 26.4612 297.649 26.5132 298.007 26.6171C298.489 26.7589 298.9 27.0047 299.243 27.3639C299.587 27.7231 299.849 28.1626 300.026 28.6777C300.202 29.1929 300.293 29.8356 300.293 30.5965C300.293 31.2629 300.207 31.8395 300.04 32.3263C299.835 32.917 299.544 33.3944 299.162 33.763C298.876 34.0418 298.489 34.2545 297.998 34.4105C297.63 34.5239 297.143 34.5806 296.533 34.5806H293.417V26.4612H293.421ZM295.077 27.8317V33.2101H296.313C296.776 33.2101 297.11 33.1864 297.315 33.1344C297.582 33.0683 297.807 32.9548 297.983 32.7989C298.16 32.6429 298.303 32.3783 298.418 32.0143C298.532 31.6504 298.585 31.1542 298.585 30.5256C298.585 29.8971 298.527 29.415 298.418 29.0794C298.308 28.7439 298.15 28.4792 297.95 28.2949C297.749 28.1106 297.492 27.9783 297.182 27.9121C296.953 27.8601 296.499 27.8365 295.822 27.8365H295.077V27.8317Z" fill="white"/>
<path d="M302.86 34.5806V26.4612H306.344C307.222 26.4612 307.857 26.5321 308.253 26.6786C308.649 26.8251 308.968 27.085 309.207 27.4584C309.446 27.8317 309.565 28.2571 309.565 28.7392C309.565 29.3488 309.384 29.8498 309.021 30.2468C308.658 30.6438 308.119 30.8943 307.398 30.9982C307.756 31.2062 308.052 31.433 308.286 31.6788C308.52 31.9246 308.835 32.3641 309.226 32.9974L310.228 34.5806H308.248L307.05 32.8131C306.625 32.1798 306.334 31.7828 306.177 31.6174C306.019 31.4519 305.852 31.3385 305.68 31.2818C305.509 31.2251 305.227 31.192 304.845 31.192H304.511V34.5806H302.855H302.86ZM304.516 29.8923H305.743C306.535 29.8923 307.031 29.8592 307.231 29.7931C307.432 29.7269 307.584 29.6135 307.694 29.4481C307.804 29.2827 307.861 29.0842 307.861 28.8384C307.861 28.5643 307.79 28.3469 307.642 28.1768C307.494 28.0066 307.289 27.9026 307.017 27.8601C306.883 27.8412 306.482 27.8317 305.809 27.8317H304.516V29.8923Z" fill="white"/>
<path d="M312.271 26.4612H313.926V30.8565C313.926 31.5559 313.945 32.0049 313.988 32.2128C314.06 32.5437 314.227 32.8131 314.494 33.0116C314.761 33.2101 315.124 33.314 315.587 33.314C316.05 33.314 316.413 33.2195 316.651 33.0305C316.89 32.8414 317.033 32.6051 317.081 32.331C317.128 32.0569 317.152 31.5937 317.152 30.951V26.4612H318.808V30.7241C318.808 31.6977 318.765 32.3877 318.674 32.7894C318.584 33.1911 318.422 33.5314 318.178 33.8103C317.935 34.0891 317.615 34.3065 317.214 34.4719C316.813 34.6373 316.284 34.7177 315.64 34.7177C314.857 34.7177 314.265 34.6279 313.86 34.4483C313.454 34.2687 313.134 34.0371 312.9 33.7488C312.667 33.4605 312.509 33.1628 312.438 32.8509C312.328 32.3877 312.275 31.6977 312.275 30.7903V26.4612H312.271Z" fill="white"/>
<path d="M325.522 31.5937V30.2279H329.092V33.4605C328.744 33.7914 328.242 34.0844 327.584 34.3396C326.925 34.5948 326.257 34.7177 325.585 34.7177C324.726 34.7177 323.981 34.5381 323.342 34.1836C322.702 33.8292 322.225 33.3188 321.905 32.6571C321.586 31.9954 321.423 31.2723 321.423 30.4925C321.423 29.6466 321.605 28.8951 321.958 28.2382C322.311 27.5813 322.841 27.0756 323.528 26.7258C324.053 26.4565 324.706 26.3194 325.489 26.3194C326.506 26.3194 327.302 26.5321 327.875 26.9527C328.448 27.3733 328.815 27.9594 328.977 28.7061L327.331 29.0085C327.217 28.6116 326.997 28.2949 326.677 28.0633C326.358 27.8318 325.961 27.7183 325.484 27.7183C324.759 27.7183 324.186 27.9452 323.757 28.3989C323.327 28.8526 323.117 29.5284 323.117 30.4217C323.117 31.3858 323.332 32.1089 323.766 32.5909C324.201 33.073 324.764 33.314 325.465 33.314C325.814 33.314 326.162 33.2479 326.51 33.1108C326.859 32.9737 327.159 32.8131 327.407 32.6193V31.589H325.513L325.522 31.5937Z" fill="white"/>
<path d="M343.083 34.5806H341.284L340.568 32.7374H337.29L336.613 34.5806H334.856L338.049 26.4612H339.8L343.083 34.5806ZM340.034 31.3669L338.903 28.3516L337.796 31.3669H340.034Z" fill="white"/>
<path d="M345.121 26.4612H348.399C349.048 26.4612 349.53 26.4895 349.85 26.5415C350.17 26.5935 350.456 26.7069 350.704 26.8771C350.952 27.0472 351.167 27.2741 351.334 27.5576C351.501 27.8412 351.587 28.1579 351.587 28.5076C351.587 28.8857 351.482 29.2354 351.277 29.5521C351.072 29.8687 350.79 30.1097 350.437 30.2657C350.938 30.4075 351.32 30.6532 351.587 31.003C351.854 31.3527 351.988 31.7591 351.988 32.227C351.988 32.5957 351.902 32.9548 351.73 33.3046C351.558 33.6543 351.32 33.9331 351.019 34.1411C350.718 34.349 350.351 34.4767 349.907 34.5239C349.63 34.5523 348.967 34.5712 347.912 34.5806H345.121V26.4612ZM346.777 27.8128V29.6891H347.86C348.504 29.6891 348.905 29.6797 349.063 29.6608C349.344 29.6277 349.568 29.5284 349.731 29.3677C349.893 29.207 349.974 28.9944 349.974 28.7344C349.974 28.4745 349.902 28.2807 349.764 28.1248C349.626 27.9688 349.416 27.8743 349.139 27.8412C348.977 27.8223 348.504 27.8128 347.726 27.8128H346.777ZM346.777 31.0408V33.2101H348.309C348.905 33.2101 349.282 33.1912 349.444 33.1581C349.692 33.1155 349.893 33.0068 350.046 32.832C350.198 32.6571 350.279 32.4302 350.279 32.142C350.279 31.8962 350.222 31.693 350.098 31.5228C349.974 31.3527 349.807 31.2298 349.583 31.1495C349.358 31.0691 348.867 31.0313 348.113 31.0313H346.777V31.0408Z" fill="white"/>
<path d="M354.531 26.4612H356.187V30.8565C356.187 31.5559 356.206 32.0049 356.249 32.2128C356.321 32.5437 356.488 32.8131 356.755 33.0116C357.022 33.2101 357.385 33.314 357.848 33.314C358.311 33.314 358.673 33.2195 358.912 33.0305C359.151 32.8414 359.294 32.6051 359.341 32.331C359.389 32.0569 359.413 31.5937 359.413 30.951V26.4612H361.069V30.7241C361.069 31.6977 361.026 32.3877 360.935 32.7894C360.845 33.1911 360.682 33.5314 360.439 33.8103C360.196 34.0891 359.876 34.3065 359.475 34.4719C359.074 34.6373 358.544 34.7177 357.9 34.7177C357.118 34.7177 356.526 34.6279 356.12 34.4483C355.715 34.2687 355.395 34.0371 355.161 33.7488C354.927 33.4605 354.77 33.1628 354.698 32.8509C354.589 32.3877 354.536 31.6977 354.536 30.7903V26.4612H354.531Z" fill="white"/>
<path d="M363.55 31.9387L365.163 31.7828C365.259 32.3168 365.459 32.7091 365.755 32.9643C366.051 33.2195 366.452 33.3424 366.953 33.3424C367.487 33.3424 367.888 33.229 368.16 33.0068C368.432 32.7847 368.566 32.52 368.566 32.2223C368.566 32.0285 368.508 31.8678 368.394 31.7308C368.279 31.5937 368.084 31.4803 367.797 31.3811C367.602 31.3149 367.163 31.1967 366.471 31.0266C365.583 30.8092 364.963 30.5398 364.605 30.2232C364.104 29.7742 363.851 29.2307 363.851 28.5879C363.851 28.172 363.97 27.7892 364.204 27.4253C364.438 27.0614 364.781 26.792 365.225 26.603C365.669 26.4139 366.208 26.3194 366.838 26.3194C367.869 26.3194 368.642 26.5415 369.162 26.9905C369.682 27.4395 369.954 28.035 369.983 28.7817L368.327 28.8526C368.255 28.4367 368.103 28.1342 367.869 27.9546C367.635 27.775 367.287 27.6805 366.819 27.6805C366.351 27.6805 365.96 27.7798 365.688 27.9735C365.511 28.1011 365.426 28.2666 365.426 28.4792C365.426 28.673 365.507 28.8337 365.674 28.9707C365.884 29.1456 366.389 29.3252 367.196 29.5142C368.002 29.7033 368.599 29.8971 368.981 30.1003C369.362 30.3035 369.668 30.5776 369.887 30.9273C370.107 31.2771 370.212 31.7072 370.212 32.2223C370.212 32.6855 370.083 33.125 369.821 33.5314C369.558 33.9379 369.191 34.2403 368.713 34.4388C368.236 34.6373 367.64 34.7366 366.929 34.7366C365.893 34.7366 365.096 34.5003 364.543 34.0229C363.989 33.5456 363.655 32.8556 363.545 31.9482L363.55 31.9387Z" fill="white"/>
<path d="M372.765 34.5806V26.4612H378.844V27.8365H374.421V29.6371H378.534V31.003H374.421V33.2148H379.002V34.5806H372.765Z" fill="white"/>
<path d="M12.3611 12.2782C11.464 10.5011 9.07324 10.5011 9.07324 12.5759C9.07324 14.0552 10.5669 14.9437 12.3611 16.4229C14.1554 14.9437 15.649 14.0552 15.649 12.5759C15.649 10.5059 13.2583 10.5059 12.3611 12.2782Z" fill="#D92B4F"/>
</svg>
